<svg width="248" height="286" viewBox="0 0 248 286" fill="none" xmlns="http://www.w3.org/2000/svg">
<path id="Vector 10" d="M184.068 223.43C163.592 219.572 153.954 214.001 139.344 199.288C142.449 219.922 145.846 230.702 153.755 249.049C159.718 262.882 166.781 270.973 180.589 286H69.7745C81.5682 273.507 87.9428 265.307 94.1239 249.049C100.972 231.036 104.001 220.298 107.044 199.288C101.499 205.643 97.6025 209.209 89.6516 214.069C78.7193 220.751 71.7623 224.378 57.8483 225.4C44.4314 226.386 38.9652 225.216 28.5296 220.474C16.6035 215.054 8.65266 204.574 4.18024 192.883C-1.28587 178.596 -1.82815 161.845 5.17409 146.572C10.1434 135.733 23.5604 123.908 38.9651 119.474C54.5134 114.999 69.8873 113.672 92.1362 119.474C86.7327 114.499 83.3574 111.591 79.2161 105.186C72.3117 94.5082 69.349 88.0042 66.2961 75.1329C62.0321 56.2152 62.7449 45.9492 70.2715 28.3283C75.1116 16.9967 85.5416 8.12417 103.069 3.20163C117.48 -0.845741 130.4 -1.10642 144.81 2.70895C164.478 7.91596 172.694 14.3408 180.589 34.2405C185.281 46.0648 185.558 64.2939 178.105 84.0012C172.291 99.3711 168.162 107.419 155.743 118.981C168.47 113.943 177.608 113.504 195 115.533C211.896 117.503 222.437 124.427 235.748 137.211C246.32 149.786 249.038 158.89 247.674 179.088C246.843 191.405 239.455 204.952 226.306 215.547C212.889 223.922 200.466 226.519 184.068 223.43Z" fill="url(#paint0_linear_93_658)"/>
<defs>
<linearGradient id="paint0_linear_93_658" x1="55.9033" y1="255.854" x2="331.475" y2="66.2353" gradientUnits="userSpaceOnUse">
<stop/>
<stop offset="1" stop-color="#666666"/>
</linearGradient>
</defs>
</svg>
