<svg width="212" height="226" viewBox="0 0 212 226" fill="none" xmlns="http://www.w3.org/2000/svg">
<path id="Vector 9" d="M146.964 1.68124C126.479 7.36692 118.414 15.0244 105.828 39.4408C95.1409 18.1327 87.1956 8.50355 64.3 1.68124C52.5468 -1.8209 32.5664 -0.31555 18.8543 10.6345C7.22116 19.9244 0.336623 31.6553 0.0492087 42.5549C-0.526384 64.3832 3.88664 75.1215 16.5037 92.7712C21.792 101.024 36.8759 118.852 67.4341 156.612C86.6918 181.596 94.538 196.399 104.261 223.956C105.222 226.681 106.79 226.681 107.787 223.956C117.714 196.806 125.717 182.006 145.789 156.612C170.66 126.884 186.093 108.783 196.719 92.7712C208.202 74.8337 211.762 63.9042 211.998 42.5549C212.115 32.0446 206.122 20.9985 193.585 10.6345C184.182 2.86157 161.851 -2.45086 146.964 1.68124Z" fill="url(#paint0_linear_93_659)"/>
<defs>
<linearGradient id="paint0_linear_93_659" x1="19.5886" y1="184.64" x2="250.451" y2="10.774" gradientUnits="userSpaceOnUse">
<stop/>
<stop offset="1" stop-color="#666666"/>
</linearGradient>
</defs>
</svg>
