<svg width="243" height="291" viewBox="0 0 243 291" fill="none" xmlns="http://www.w3.org/2000/svg">
<g id="Vector 8" style="mix-blend-mode:screen">
<path d="M202.506 98.5C166.533 65.938 149.769 43.9014 124.006 0C95.8241 43.4493 78.5426 65.8882 42.0059 98.5C23.1261 118.17 15.3933 130.416 4.50593 153.5C-0.715256 170.554 -1.64046 180.256 3.00593 198C9.23724 215.96 15.9944 223.489 35.0059 231.5C67.2043 241.18 84.3466 240.109 113.006 224.5C106.716 254.481 99.4486 268.282 83.5059 290.5H166.506C145.033 265.418 138.787 250.918 135.006 224.5C158.149 235.973 172.41 238.915 202.506 231.5C219.774 225.994 228.413 220.286 239.006 198C243.914 180.622 244.242 170.878 239.006 153.5C230.587 128.132 222.307 116.282 202.506 98.5Z" fill="url(#paint0_linear_93_660)"/>
</g>
<defs>
<linearGradient id="paint0_linear_93_660" x1="41.9431" y1="282" x2="280.443" y2="38.5" gradientUnits="userSpaceOnUse">
<stop/>
<stop offset="1" stop-color="#666666"/>
</linearGradient>
</defs>
</svg>
